<?xml version="1.0" standalone="no"?>
<!DOCTYPE svg PUBLIC "-//W3C//DTD SVG 20010904//EN"
 "http://www.w3.org/TR/2001/REC-SVG-20010904/DTD/svg10.dtd">
<svg version="1.0" xmlns="http://www.w3.org/2000/svg"
 width="1722.000000pt" height="876.000000pt" viewBox="0 0 1722.000000 876.000000"
 preserveAspectRatio="xMidYMid meet">

<g transform="translate(0.000000,876.000000) scale(0.100000,-0.100000)"
fill="#000000" stroke="none">
<path d="M4885 8679 c-1069 -65 -1150 -71 -1297 -99 -255 -49 -490 -126 -702
-231 -250 -124 -246 -121 -803 -650 l-514 -487 -147 -6 c-211 -8 -307 -21
-397 -51 -166 -56 -257 -135 -407 -353 -96 -139 -97 -141 -117 -244 -69 -349
-121 -768 -155 -1268 -14 -210 -6 -389 30 -620 32 -208 103 -392 187 -486 l44
-49 22 -230 c65 -703 192 -1083 415 -1254 100 -76 60 -71 609 -71 556 0 546
-1 651 74 141 101 311 331 356 484 7 23 15 42 17 42 22 0 793 -184 1903 -453
509 -124 1074 -260 1255 -302 182 -42 359 -84 394 -93 l64 -17 67 -112 c459
-756 881 -1081 1483 -1142 215 -22 667 32 952 114 123 35 312 130 416 209 153
116 299 292 444 534 l67 112 51 0 c29 0 833 27 1788 61 l1735 60 105 -78 c320
-241 642 -381 1014 -440 151 -24 465 -23 630 1 568 85 972 340 1311 827 27 39
38 46 97 63 85 24 179 87 238 159 l45 56 22 158 c49 352 70 645 82 1173 l8
385 -28 60 c-15 33 -63 108 -107 168 -72 96 -82 115 -98 187 -17 75 -35 98
-35 44 0 -40 -27 -81 -61 -93 -18 -6 -59 -11 -91 -11 -48 0 -71 6 -125 35 -82
43 -111 44 -253 5 -60 -17 -137 -33 -172 -37 l-64 -5 -17 213 c-16 195 -39
378 -52 420 -4 12 20 28 102 67 191 90 360 144 495 158 l68 7 -41 77 c-65 126
-111 166 -295 258 -357 179 -656 290 -1024 382 -379 94 -636 135 -1418 225
-295 34 -402 49 -430 64 -47 23 -173 64 -282 91 -149 37 -160 41 -160 53 0 7
13 23 30 37 36 30 50 91 50 214 -1 143 -46 199 -185 231 -82 19 -318 23 -381
6 -39 -10 -77 -41 -85 -69 -3 -8 -227 154 -570 411 -559 419 -679 501 -939
639 -222 119 -487 225 -686 277 l-121 31 -1794 75 c-987 41 -1852 74 -1924 74
-71 -1 -643 -32 -1270 -70z m-5 -224 c224 -27 421 -69 490 -106 232 -123 428
-548 696 -1504 l106 -379 -17 -63 c-10 -35 -22 -63 -27 -63 -8 0 -707 153
-908 198 -32 8 -28 9 40 16 41 4 102 14 135 22 59 15 64 15 339 -36 153 -28
280 -49 282 -47 5 4 -145 590 -196 767 -112 390 -278 740 -416 876 -79 78
-174 127 -305 159 -387 92 -824 92 -1429 -1 -332 -51 -467 -86 -611 -160 -126
-65 -303 -231 -493 -464 -128 -157 -466 -614 -459 -621 10 -9 425 -59 1323
-159 393 -44 796 -90 894 -103 l179 -22 10 -30 c5 -17 18 -41 28 -55 l17 -26
-161 28 c-575 99 -1214 169 -2132 235 -212 15 -385 30 -385 34 0 11 499 606
635 759 111 125 382 396 483 484 29 25 74 57 100 70 154 78 664 176 1067 206
167 12 553 4 715 -15z m380 -1299 c161 -22 372 -72 409 -95 20 -13 28 -101 9
-101 -45 0 -605 31 -723 41 -252 19 -465 52 -465 70 0 39 49 73 135 96 66 17
489 10 635 -11z m492 -353 c5 -2 -6 -22 -24 -44 l-32 -40 -176 6 c-429 15
-823 44 -840 62 -3 3 45 3 105 -1 61 -4 278 -7 483 -8 371 -1 374 -1 395 21
17 16 29 20 52 15 16 -3 33 -8 37 -11z m-3732 -348 c249 -58 226 -47 222 -100
-2 -25 -9 -45 -16 -45 -6 0 -102 10 -214 22 l-203 23 6 35 c13 74 26 109 38
105 6 -2 82 -20 167 -40z m1775 -263 l240 -48 -3 -49 c-2 -28 -5 -52 -7 -54
-4 -3 -517 50 -523 54 -3 2 19 86 33 133 5 15 -20 19 260 -36z m11453 -641
c146 -8 168 -12 217 -36 104 -50 130 -100 185 -352 77 -353 74 -954 -5 -1130
-28 -63 -96 -138 -148 -165 -88 -45 -715 -129 -1177 -158 -203 -12 -710 -13
-845 0 -130 12 -201 31 -303 81 -133 65 -171 110 -284 334 -53 105 -131 264
-173 355 -105 224 -257 527 -312 622 -42 73 -45 83 -41 133 6 71 40 115 121
155 59 29 75 32 367 60 505 48 982 83 1355 99 251 11 848 12 1043 2z m-4788
-201 c398 -16 655 -39 922 -84 178 -30 230 -55 305 -145 114 -138 273 -409
273 -467 0 -63 -83 -71 -505 -49 -468 25 -576 16 -747 -61 -142 -64 -290 -82
-531 -65 -219 16 -461 51 -557 82 -54 17 -97 55 -130 112 -66 114 -176 434
-201 581 -13 74 -12 79 6 92 15 11 99 14 464 14 245 0 561 -5 701 -10z m-9143
-52 c95 -44 201 -208 268 -413 212 -648 111 -1669 -201 -2013 -178 -197 -371
-128 -516 186 -239 517 -217 1502 44 2003 119 228 255 308 405 237z m6466
-375 c-7 -2 -21 -2 -30 0 -10 3 -4 5 12 5 17 0 24 -2 18 -5z m-85 -10 c-10 -2
-26 -2 -35 0 -10 3 -2 5 17 5 19 0 27 -2 18 -5z m-163 -32 c-472 -122 -779
-409 -976 -915 -103 -264 -186 -666 -215 -1041 -4 -49 -10 -97 -13 -106 -5
-14 -234 29 -1733 325 -950 188 -1723 342 -1719 344 5 1 764 -135 1687 -303
924 -168 1693 -308 1711 -311 36 -7 33 -20 53 206 30 348 104 684 206 935 167
409 419 674 777 816 69 28 264 78 302 78 17 0 -19 -13 -80 -28z m610 -120 c45
-11 106 -29 136 -40 50 -19 60 -28 103 -93 56 -87 156 -289 156 -317 0 -11
-75 -194 -166 -405 l-166 -386 54 -52 c30 -29 65 -68 79 -86 l24 -33 203 136
c112 75 206 134 209 132 5 -6 33 -108 33 -124 0 -7 -89 -65 -197 -129 -109
-65 -200 -119 -202 -120 -2 -2 2 -24 8 -50 7 -25 14 -81 18 -124 5 -69 8 -79
27 -83 12 -3 121 -22 243 -43 123 -21 227 -40 233 -44 10 -6 42 -151 35 -159
-2 -2 -126 29 -275 69 -149 40 -274 70 -277 66 -4 -3 -18 -35 -33 -70 -15 -35
-37 -78 -49 -95 l-23 -31 233 -293 c128 -160 244 -307 258 -324 14 -18 29 -33
34 -33 11 0 123 155 164 228 l37 67 7 -35 c4 -19 10 -66 14 -105 l6 -70 -51
-84 c-210 -345 -486 -562 -830 -653 -98 -26 -308 -35 -421 -18 -386 56 -745
325 -973 728 -321 566 -340 1325 -50 1905 219 437 578 723 989 787 93 14 317
4 410 -19z m-5398 -1247 c-3 -3 -12 -4 -19 -1 -8 3 -5 6 6 6 11 1 17 -2 13 -5z
m56 -11 c-7 -2 -19 -2 -25 0 -7 3 -2 5 12 5 14 0 19 -2 13 -5z m50 -10 c-7 -2
-19 -2 -25 0 -7 3 -2 5 12 5 14 0 19 -2 13 -5z m13872 -55 l27 -32 -4 -171
c-5 -238 -16 -254 -221 -318 -196 -62 -389 -106 -561 -128 -102 -13 -126 -6
-151 47 -18 38 -12 75 44 263 35 118 42 133 77 160 30 24 54 32 354 115 415
115 395 112 435 64z m-1065 -298 c13 -8 12 -18 -9 -77 -33 -94 -103 -240 -140
-290 -49 -68 -63 -71 -367 -98 -767 -68 -1305 -102 -1754 -112 -297 -6 -306
-5 -346 15 -93 47 -160 163 -171 293 -5 62 -4 68 17 79 15 8 127 15 339 21
824 23 1687 84 2296 163 55 8 105 14 110 15 6 0 17 -4 25 -9z m-3825 -94 c462
-13 441 -11 528 -73 39 -29 56 -52 92 -127 25 -51 49 -120 56 -158 11 -58 10
-72 -5 -112 -10 -26 -26 -50 -35 -56 -25 -13 -263 -28 -626 -40 -406 -13
-1389 -13 -1480 0 -226 33 -399 231 -406 467 -2 47 2 58 25 81 23 24 36 28
119 34 133 9 1227 -1 1732 -16z"/>
<path d="M14175 5399 c-665 -30 -1529 -98 -1593 -124 -69 -29 -64 -89 18 -235
26 -47 71 -132 99 -189 l52 -103 57 5 c31 4 142 9 247 13 l190 7 26 28 26 27
344 21 c190 12 353 21 363 21 14 0 16 6 11 33 l-7 34 159 7 c87 3 197 9 244
13 l87 6 -5 -28 -6 -27 316 3 315 4 25 -24 25 -23 217 7 217 8 -7 56 c-20 162
-78 392 -109 428 -20 23 -32 26 -131 34 -134 10 -946 9 -1180 -2z"/>
<path d="M14777 4770 c-130 -4 -239 -9 -241 -11 -5 -5 22 -220 28 -226 2 -3
133 -1 291 4 283 8 287 9 304 32 17 22 23 23 234 28 l217 6 0 70 0 70 -224 -5
c-223 -5 -224 -5 -252 18 -22 17 -40 23 -74 22 -25 -1 -152 -4 -283 -8z"/>
<path d="M13687 4696 c-277 -11 -290 -12 -306 -33 -17 -20 -34 -22 -287 -38
-148 -10 -270 -19 -272 -20 -2 -2 13 -35 32 -74 43 -84 6 -78 321 -52 217 18
220 18 242 -2 21 -19 24 -19 355 3 183 13 334 24 335 25 2 1 -16 47 -38 103
-38 94 -43 102 -68 100 -14 0 -156 -6 -314 -12z"/>
<path d="M15270 4463 c-8 -3 -24 -16 -35 -29 -20 -23 -21 -23 -380 -34 l-360
-10 -56 -56 -57 -56 -68 40 -69 40 -419 -26 -419 -26 -18 23 c-18 22 -18 22
-195 12 -97 -6 -191 -11 -210 -11 l-34 0 74 -149 c41 -81 89 -163 107 -180 60
-61 182 -108 344 -132 140 -22 884 -18 1120 4 390 38 764 96 825 127 44 22 92
74 122 133 19 38 56 236 58 310 l0 27 -157 -1 c-87 0 -165 -3 -173 -6z"/>
<path d="M9705 5238 c8 -49 17 -69 40 -88 13 -11 35 -3 145 53 151 76 151 77
-53 77 l-139 0 7 -42z"/>
<path d="M9370 5252 c0 -28 127 -378 162 -446 56 -108 144 -198 210 -214 46
-12 158 -17 158 -7 0 2 -20 35 -44 72 -76 119 -147 273 -201 438 l-53 160
-116 3 c-64 1 -116 -1 -116 -6z"/>
<path d="M10022 5223 c-60 -21 -144 -102 -173 -165 -20 -44 -24 -70 -24 -148
0 -82 4 -103 27 -152 33 -71 102 -146 165 -180 42 -23 68 -28 209 -38 150 -11
166 -10 245 9 95 22 182 53 303 108 l81 36 527 1 c291 0 528 1 528 3 0 6 -145
240 -192 310 -82 123 -147 158 -319 172 -228 20 -1096 61 -1244 60 -53 0 -108
-7 -133 -16z"/>
<path d="M1214 5091 c-19 -9 -21 -16 -18 -78 7 -119 24 -522 24 -561 0 -34 3
-37 28 -39 l29 -2 65 307 c47 220 62 311 55 320 -30 38 -142 70 -183 53z"/>
<path d="M1078 5000 c-24 -27 -60 -81 -81 -119 l-37 -69 86 -243 c47 -134 87
-245 89 -247 1 -2 13 11 25 29 l23 31 -24 334 c-12 184 -26 334 -30 334 -4 0
-27 -22 -51 -50z"/>
<path d="M1383 4672 l-70 -297 20 -40 c11 -22 23 -51 27 -64 5 -22 19 -8 133
138 109 140 126 167 121 189 -27 119 -122 347 -153 366 -4 3 -39 -129 -78
-292z"/>
<path d="M891 4613 c-24 -88 -65 -312 -58 -319 10 -11 249 -154 256 -154 3 0
11 26 17 57 l11 57 -99 215 c-54 118 -100 216 -102 218 -2 2 -13 -31 -25 -74z"/>
<path d="M1510 4314 l-125 -145 3 -92 c2 -51 7 -95 10 -98 4 -3 62 -28 130
-55 103 -40 125 -46 133 -34 20 33 4 487 -20 551 -5 15 -31 -10 -131 -127z"/>
<path d="M815 4068 c-6 -66 9 -355 18 -365 3 -2 61 45 131 104 l126 108 0 55
c0 30 -4 60 -8 67 -5 9 -242 103 -258 103 -1 0 -5 -33 -9 -72z"/>
<path d="M1362 3822 l-21 -78 89 -245 88 -244 22 50 c41 94 96 311 103 404 2
34 0 36 -98 94 -55 32 -114 68 -131 78 l-31 19 -21 -78z"/>
<path d="M985 3707 c-60 -72 -114 -138 -119 -148 -17 -35 87 -371 105 -337 3
7 41 127 83 266 73 240 76 255 65 295 -7 23 -15 45 -18 48 -3 4 -55 -52 -116
-124z"/>
<path d="M1087 3403 l-68 -285 27 -35 c32 -42 109 -93 141 -93 l23 0 -1 328 0
327 -27 21 -27 21 -68 -284z"/>
<path d="M1277 3662 l-29 -17 6 -245 c8 -323 15 -410 30 -410 26 0 106 63 146
115 35 45 41 60 35 82 -9 38 -155 493 -158 492 -1 0 -15 -8 -30 -17z"/>
<path d="M7862 4473 c-32 -4 -34 -6 -28 -36 3 -18 30 -218 61 -446 30 -228 56
-415 57 -417 2 -1 36 -4 76 -5 l73 -4 160 414 c88 228 156 418 152 422 -14 13
-135 50 -211 65 -68 13 -259 17 -340 7z"/>
<path d="M7565 4372 c-49 -26 -112 -63 -140 -82 -69 -48 -217 -191 -211 -205
7 -20 507 -655 514 -655 4 1 32 24 64 53 l56 52 -84 420 c-97 486 -92 465
-102 465 -4 0 -47 -22 -97 -48z"/>
<path d="M7044 3854 c-21 -37 -55 -112 -77 -167 -39 -100 -91 -286 -83 -295 6
-5 707 -202 721 -202 6 0 23 37 39 82 l29 82 -289 283 c-159 155 -292 282
-296 283 -4 0 -24 -30 -44 -66z"/>
<path d="M6854 3163 c-8 -29 2 -225 17 -328 9 -65 47 -235 55 -244 1 -2 159
66 349 150 l347 154 -6 35 c-3 19 -6 51 -6 71 0 65 5 64 -370 124 -190 30
-353 57 -363 59 -12 3 -19 -4 -23 -21z"/>
<path d="M7333 2601 c-178 -109 -325 -200 -329 -203 -8 -9 46 -111 115 -216
57 -86 204 -253 214 -242 7 9 397 697 402 712 3 8 -9 37 -27 65 -18 28 -37 57
-43 65 -8 13 -62 -16 -332 -181z"/>
<path d="M7816 2591 c-2 -3 -79 -177 -171 -385 l-168 -380 24 -19 c72 -59 298
-140 429 -153 l73 -7 -6 114 c-4 63 -12 262 -18 443 -12 316 -13 329 -33 334
-11 3 -44 17 -73 32 -30 15 -55 24 -57 21z"/>
<path d="M8185 2573 c-16 -9 -48 -22 -70 -28 -36 -11 -40 -16 -38 -41 8 -88
84 -803 89 -823 5 -22 8 -23 55 -17 127 17 306 95 431 187 37 28 68 53 68 55
0 13 -486 684 -494 684 -6 -1 -24 -8 -41 -17z"/>
<path d="M16185 5521 c-177 -60 -359 -138 -381 -162 -16 -17 -15 -25 0 -126 9
-59 20 -153 23 -208 3 -55 10 -110 14 -123 10 -26 3 -26 169 19 153 43 191 42
265 -4 48 -29 70 -37 108 -37 65 0 112 22 133 61 14 29 15 43 6 111 -24 166
-121 501 -148 512 -28 11 -46 6 -189 -43z"/>
</g>
</svg>
