<svg id="Layer_1" data-name="Layer 1" xmlns="http://www.w3.org/2000/svg" viewBox="0 0 63.54 71.64"><title>Lamborghini flat logo - Brandlogos.net</title><path d="M347.14,344.37a5.22,5.22,0,0,1,3.18-5.16c9.39-4.1,20.29-4.9,28-4.9s18.57.8,28,4.9a5.22,5.22,0,0,1,3.18,5.16c0,28.63-11.07,46.57-28.59,59.09a3.57,3.57,0,0,1-5.1,0c-17.52-12.52-28.59-30.46-28.59-59.09" transform="translate(-346.51 -333.61)" style="fill:#010102"/><path d="M406.81,338.6c-9.58-4.18-20.7-5-28.52-5s-19,.81-28.53,5a5.32,5.32,0,0,0-3.24,5.26c0,29.21,11.3,47.52,29.17,60.29a3.64,3.64,0,0,0,5.2,0c17.87-12.77,29.17-31.07,29.17-60.29a5.33,5.33,0,0,0-3.24-5.26m-27.14,63.85a1.71,1.71,0,0,1-2.77,0c-17.32-12.38-28.29-30-28.29-58.58a3.25,3.25,0,0,1,2-3.34c9.18-4,20-4.82,27.69-4.82s18.51.81,27.68,4.82a3.25,3.25,0,0,1,2,3.34c0,28.54-11,46.21-28.29,58.58" transform="translate(-346.51 -333.61)" style="fill:#fbbb25"/><path d="M376.44,384.46c-.09-.15-.15-.18-.33-.11a2.08,2.08,0,0,0-.36.53c-.08.2-.31.29-.2.49.82,0,.72-.44.89-.91m-5.37.76c0-.14-.21-.39-.21-.39-.27.17-.28.53-.42.86a1.63,1.63,0,0,0-.28.88h0c.38-.32.93-.66.86-1.35m5.06-12.42c-.08-.17.08-.46-.19-.47s-.21.53-.28.82c-.31.33-.68.64-.56,1.14a.89.89,0,0,0,.61.64,4,4,0,0,0,1.74-.12v-.12a3.86,3.86,0,0,1-1.32-1.89m5.73-2.07a.86.86,0,0,1,.16.22c0,.53.65.39,1,.79.3.16.49-.13.77-.12.26-2.67-2.75-3.12-2.19-2,.08.33-.32,0-.55,0-.78.15-.82.76-.49,1,.72.32.9-.33,1.3.11m.19-4c.18,0,.16-.13.35-.11s-.24-.57-.57-.68c-.09,0-.24-.06-.27.08.17.26.37.77.49.72m-.64-5.2a1.92,1.92,0,0,0-.92-.37.31.31,0,0,0-.17.3,1.24,1.24,0,0,0,1.09.06m2.2,19.48c0,.15-.15.23-.28.24s-.43-.2-.55-.37a1,1,0,0,1,0-.79l.09-.06c.14.38.29.88.74,1m5.12-2.67c.2.15.95.65,1.09.77a24.48,24.48,0,0,1,.46,2.61,9.87,9.87,0,0,0-.32,2.47,2.85,2.85,0,0,1,.18,1.78c.2.48.6,1.12.18,1.6-.23.16-.36.42-.64.46-.11-.1.08-.69-.25-.57-.11.13-.06.47-.18.57a1.56,1.56,0,0,1-1-.77c-.11-.61.57-1,.36-1.63s.46-1.27.11-2a9.67,9.67,0,0,0-1.32-2.2c-.16.11-.35.21-.61.41s-.37.3-.49.4a3.51,3.51,0,0,0-.6.68,3,3,0,0,0-.56,1.43,4.46,4.46,0,0,0,0,.79.76.76,0,0,1-.14.45c-.14.17-.25.12-.41.37s-.23.48-.4.52c-.62.16-1.53-.13-2.3.11a1.11,1.11,0,0,1-.9-.24,1.9,1.9,0,0,1-.51-1.22,1.93,1.93,0,0,0-.19-.61,2.2,2.2,0,0,0-.22-.37,1.11,1.11,0,0,0-.3-.1c-.15,0-.24.48-.3.55a3,3,0,0,0,0,.42,1.1,1.1,0,0,1-.2,1,.53.53,0,0,1-.29.2,4.17,4.17,0,0,1-.22,1.17,2.78,2.78,0,0,1-1.59.62.66.66,0,0,1-.3,0c-.25-.19,0-.46-.16-.56-.2.07-.45.4-.7.18s0-.29.14-.45c.3-.57.37-1,1-1.35.1-.16.26-.44.42-.67a3.34,3.34,0,0,0,.36-.54c.12-.3.17-.71.1-.74-.48-.22-1,.15-1.2.87a1.83,1.83,0,0,1-.95,1.25,5.64,5.64,0,0,0-1.44,2.4c0,.1-.25.12-.29.19a1,1,0,0,1-.22.79c-.44.41-1.46.76-1.85.53-.19-.11.4-.67,0-.63-.17,0-.37.41-.56.35-.35-.11-.19-1.34,0-1.84.22-.26,1-.25,1-.87a2.44,2.44,0,0,0,1.54-1.07,3.25,3.25,0,0,0,.25-.94,3.22,3.22,0,0,1,.44-.88.6.6,0,0,1-.43-.15c-.4-.6.56-2-.5-2.54a8.22,8.22,0,0,0-1.22,1.68c-.26.62-.73,1.14-1,1.76a4.47,4.47,0,0,1-1.32,2.7c-.64.8.15,2-.76,2.59a6.73,6.73,0,0,1-.37,1.32,2.45,2.45,0,0,1-2,.37l.26-.88c-.55-.05-.26.77-.83.63a1.7,1.7,0,0,1,.74-1.85c.14,0,.13-.19.16-.3.23-1,1.33-1.35,1.52-2.34a3.86,3.86,0,0,1,.74-2.51,10.17,10.17,0,0,0,.16-2.57c0-1.33,1.13-2.48.94-3.89a4.9,4.9,0,0,1,.74-2.8c.59-1.22,1.88-2.14,1.75-3.61a4.16,4.16,0,0,1,1.91-3.49c.61-.37,1.28-.69,1.9-1a24.22,24.22,0,0,0,2.57-2,1.87,1.87,0,0,1,1.55-.32,30.43,30.43,0,0,0,3.19,1.1,5.19,5.19,0,0,1,1.58.34c1.2.43,2.27-2.61-1.39-2.79l-4.49,0c-3.79-.19-5-.92-4-2.22,2.62-2.37,7.51-.7,8.22-.09.1.08-.31.52-2.32-.09a1.68,1.68,0,0,0-.88.07,1.64,1.64,0,0,0,1.07.35c.15,0,1,.15.32.37-2.36.8-3.75-.86-4.79-1-.54-.07-1.9,1.18-.7,1.51,3.08.81,5.93.16,8.59.54a3.07,3.07,0,0,1,2.38,1.79,2.19,2.19,0,0,1-.33,2.08,6.87,6.87,0,0,1,1.18,2.2,4.51,4.51,0,0,1,1.27,2.94c0,1.17-.4,1.6-.25,2.22.29,1.2.48,1,.16,2.33a2.32,2.32,0,0,0-.71-.08c0-.31.12-.84.1-1a5,5,0,0,1-.35-1.54,8.34,8.34,0,0,0,.38-2.39,3.08,3.08,0,0,0-.61-1.54,2.83,2.83,0,0,1-.5-.86,4.62,4.62,0,0,0-.76-1.45c-.3-.5-.3-.58-.6-.52l-.78.14a2.2,2.2,0,0,0-.74.27.35.35,0,0,0,0,.49c.24.22.67.22.68.64-.26.87,1,1.5-.12,1.8-.53,0-.83-.24-1.24-.68a8.62,8.62,0,0,0-1.74-2.43c-.21-.1-.7-.45-.93-.28v.17c.72,1.29,1.16,1.76,1.78,3a20.66,20.66,0,0,1,1.32,3.15c.08.3.1.53,0,.6s-.29-.52-.42-.75-.14-.44-.24-.62c-.64-1.1-.81.06-1.43.12-.27.07-.7-.33-.75.19a.31.31,0,0,0,.25.42,1.66,1.66,0,0,1,1.41.6c0,.05,0,.16-.11.13s-.25-.33-.53-.34-.72,0-.65.27,0,.28.22.39a2,2,0,0,1,1.75.76c.09.18.14.37.39.36l.65,0c1.84-.07,3.35,1,3.39,1.35,1.39-.29,1.79,1.31,2.85,1.77a1.92,1.92,0,0,0,1.5.06c.49-.21.67-.07.07.33-2.55,1.75-4.18-1-5.12-1.16.05-.29.4-.86,0-1.14-.14-.09-.35.22-.69-.34-.2-.34-.47.21-.75,0s-.35-.37-.59-.35-.24,0-.35,0-.1.12-.16.27,0,.34.07.4a1.16,1.16,0,0,0,.6.26c.08,0,0,.12,0,.18a1.26,1.26,0,0,1-1.16-.13,1.2,1.2,0,0,0,0-.72.86.86,0,0,0-.76-.53.18.18,0,0,0,0,.23c.29.4.07.93-.12.92-1.23-.21-.95.9-.06,1.2a3.07,3.07,0,0,0,2.48,0c.16-.07.21,0-.07.27a2.45,2.45,0,0,1-.87.46,2.84,2.84,0,0,1-.72.12,3.44,3.44,0,0,1-3.34-1.77c-.57-1.68,1.55-1.73,1.92-1.73h.11c.2-.14,0-.32-.07-.43-.26-.34-.72-.19-1.12-.23a3.62,3.62,0,0,0-.93.54c-.14,0-.2-.12-.34-.18a2.31,2.31,0,0,0-1.43-.15c-.22.18,0,.48,0,.73a2.56,2.56,0,0,0,.76,1.24c.16.12.39.27.56.43a1.29,1.29,0,0,1,.36,1,9.62,9.62,0,0,1-.5.92,6.64,6.64,0,0,0-.83,1.6,5,5,0,0,0-.2.81c0,.2-.19.59.12.87s.57-1.21,1.52-1.28c.1-.08,0,.4-.35,1.29-.12.32-.15.41-.21.62a6.64,6.64,0,0,0-.3.9,4.68,4.68,0,0,0-.09.84.51.51,0,0,0,.14.47.21.21,0,0,0,.32-.08c0-.08,0-.34.16-.43a.37.37,0,0,1,.52.21.57.57,0,0,1,0,.34.65.65,0,0,1-.31.25c-.33.14,0,.52.41.35a1.81,1.81,0,0,1,1-.05,1,1,0,0,0,.72-.11c.06,0,.15-.25.28-.4s.1-.08.25-.22a.57.57,0,0,0,.1-.59,2.4,2.4,0,0,1,0-.68,3.7,3.7,0,0,1,.2-.66,3.09,3.09,0,0,1,.32-.66c.07-.11.35-.44.45-.58a4.88,4.88,0,0,1,.53-.52,3.2,3.2,0,0,1,.45-.35c.23-.15.42-.29.54-.34a5.22,5.22,0,0,0,.67-.36,3.78,3.78,0,0,0,.85-2.18m0,1.94c-.24.46-.51.62-.46.8a8.72,8.72,0,0,0,.83,1.34.3.3,0,0,0,.43-.16,3.31,3.31,0,0,0,.11-.87c0-.25-.06-.67-.11-1.06s-.26-.73-.41-.69-.21.35-.39.64m-8.43-3.55a4.82,4.82,0,0,1-.58-1.4.67.67,0,0,0-.76-.46,1.06,1.06,0,0,0-.76.37c-.21.18-.18.46-.51.7a1.5,1.5,0,0,1-1.13.4c-.64-.15-.68-.84-1.36-.51a1.53,1.53,0,0,0-.71.8c-.12.25-.36.75-.91.39-.27-.18-.38-.57-.83-.28s-.49,1.75-.71,2.07a8.08,8.08,0,0,0-.84,2.17s-.11.41-.15.6-.24,1.43.11,1.52c.56.15,1.41-1.24,1.56-1.4a5.5,5.5,0,0,0,.81-1.14.92.92,0,0,1,.81-.3c.09,0,.83.07,1.2.12a7.36,7.36,0,0,1,1,.23c.14,0,.15.18,0,.23a3.22,3.22,0,0,1-.7.17.73.73,0,0,0-.45.34,4.67,4.67,0,0,0-.28.87c0,.18-.2.71,0,1a1.63,1.63,0,0,0,.92.22c.37,0,1.76-.13,1.87-.14.33,0,.72,0,1,0,.12,0,1,0,.93-.33-.05-.17-.38-1-.46-1.11a6.25,6.25,0,0,1-.74-1.35,1.36,1.36,0,0,1,0-.85,2.65,2.65,0,0,1,.77-1c1-.82,1.1-1,.73-1.87" transform="translate(-346.51 -333.61)" style="fill:#fbbb25"/><path d="M403.71,359.49v-7.43l1,.38v7.47l-1-.41m-2.4-.85-.92-2.25c-.31-.76-.6-1.5-.9-2.24-.15-.34-.43-1.1-.52-1.34,0,.27,0,1.12,0,1.46V358l-1-.27v-7.36c.34.07.7.16,1,.25l.81,2c.27.65.54,1.33.81,2,.14.36.43,1.14.52,1.37,0-.29,0-1.14,0-1.5v-3.23c.34.09.69.2,1,.31v7.41c-.29-.11-.58-.2-.85-.29m-6-1.52v-7.36l1.06.22v7.36Zm-2.58-.45v-3.41c-.7-.11-1.41-.22-2.11-.31v3.43c-.34-.05-.7-.09-1-.13v-7.41c.34,0,.7.09,1,.15v3c.7.09,1.41.2,2.11.31v-3l1,.18v7.38l-1-.18m-6.62-.63a2,2,0,0,1-1.73-1.23,5.87,5.87,0,0,1-.54-2.72,5.68,5.68,0,0,1,.56-2.74,1.77,1.77,0,0,1,1.73-1,2.14,2.14,0,0,1,2,2c-.36.05-.7.11-1.06.18-.16-.79-.45-1.08-1-1.14s-.72.25-.9.74a5.46,5.46,0,0,0-.29,2,6.3,6.3,0,0,0,.25,1.88c.2.54.52.94,1,1,.7.05,1-.34,1-1.24v-.52c-.27,0-.56-.05-.83-.07v-1l1.91.16v1.64a2.35,2.35,0,0,1-.51,1.55,1.84,1.84,0,0,1-1.6.54m-3.12-.29c-.38,0-.78,0-1.16,0-.2-.56-.4-1.1-.58-1.64s-.38-1.08-.56-1.64c-.31,0-.59,0-.88,0v3.25h-1V348.2l2.11,0a2.25,2.25,0,0,1,1.46.52,2.11,2.11,0,0,1,.63,1.62,2.28,2.28,0,0,1-.32,1.26,1.7,1.7,0,0,1-.85.65c.2.58.4,1.15.59,1.75l.6,1.71m-5.43-3.82a6.09,6.09,0,0,1-.54,2.74,2,2,0,0,1-1.73,1.14,1.81,1.81,0,0,1-1.71-1,5.76,5.76,0,0,1-.52-2.69,6.24,6.24,0,0,1,.52-2.76,2,2,0,0,1,1.73-1.19,1.83,1.83,0,0,1,1.71,1.08,6,6,0,0,1,.54,2.72m-6.51,1.73a1,1,0,0,0-1.14-1.1l-.83.09V355l.94-.07c.63-.05,1-.41,1-1.3m1.06-.07a2.43,2.43,0,0,1-.58,1.7,2.16,2.16,0,0,1-1.51.67l-2,.18v-7.41c.63-.05,1.24-.11,1.88-.18a2.14,2.14,0,0,1,1.48.36,1.73,1.73,0,0,1,.59,1.46,1.8,1.8,0,0,1-.87,1.6,1.55,1.55,0,0,1,1,1.62m9.77-3.23a1,1,0,0,0-1.1-1.12l-1,0v2.22c.32,0,.65,0,1,0a1,1,0,0,0,1.1-1.08m-5.39,1.6a5.73,5.73,0,0,0-.27-1.93c-.18-.52-.51-.88-.94-.86s-.76.38-.94.9a6.44,6.44,0,0,0-.23,1.93,6.27,6.27,0,0,0,.25,1.93c.2.51.51.85,1,.85s.74-.38.92-.88a6.43,6.43,0,0,0,.25-1.93m-5.57-1.5c0-.74-.42-1-1-.92l-.86.07v2l.85-.09a1,1,0,0,0,1-1.1m-5.39,6v-3c0-.47,0-1.55,0-1.84l-.58,2c-.16.52-.34,1-.49,1.59l-.49,1.62-.49-1.46c-.16-.51-.31-1-.47-1.46s-.51-1.51-.58-1.8c0,.29,0,1.35,0,1.82v3l-1,.18v-7.36l1.1-.22.49,1.46c.16.49.32,1,.49,1.44s.4,1.3.45,1.55c.09-.29.34-1.26.49-1.71s.31-1.06.47-1.61.32-1,.49-1.59l1.1-.15v7.4l-1,.13m-6.83-1.68c-.09-.38-.2-.76-.29-1.15s-.25-1.28-.31-1.53c-.05.29-.22,1.17-.32,1.7s-.18.86-.27,1.3l1.19-.31m1.8,2.54c-.4.07-.78.16-1.15.25l-.22-.94-.22-.92c-.56.13-1.1.25-1.62.4-.09.36-.16.7-.23,1s-.13.7-.2,1l-1.12.32c.31-1.33.61-2.65.92-4s.61-2.61.92-3.93c.36-.11.72-.2,1.08-.27.31,1.15.61,2.31.92,3.48s.6,2.31.92,3.48m-8.75,2.61v-7.47l1-.38v6.44c.79-.31,1.59-.58,2.4-.83v1c-1.16.4-2.31.81-3.44,1.24" transform="translate(-346.51 -333.61)" style="fill:#fbbb25"/><path d="M358.36,347.62l-.43-1.86-1.6.42-.42,2.09-1.09.31,1.8-8,1.06-.28,1.8,7-1.13.28m-.92-4c-.11-.46-.32-1.54-.32-1.54s-.21,1.18-.31,1.71l-.27,1.33,1.18-.31-.27-1.18" transform="translate(-346.51 -333.61)" style="fill:#fbbb25"/><path d="M362.34,346.89a1.67,1.67,0,0,1-2.08-1.86v-5.3l1-.21c0,2.1,0,3.15,0,5.25,0,.62.27,1.2,1,1.06a1.32,1.32,0,0,0,1-1.43v-5.27l1-.17v5.23a2.52,2.52,0,0,1-2.08,2.68" transform="translate(-346.51 -333.61)" style="fill:#fbbb25"/><path d="M367.91,339.53V346l-1,.13v-6.42l-1.37.19v-1c1.52-.22,2.28-.31,3.8-.46v1l-1.38.15" transform="translate(-346.51 -333.61)" style="fill:#fbbb25"/><path d="M372,345.69c-1.59.11-2.25-1.49-2.25-3.65s.67-3.93,2.26-4,2.27,1.55,2.27,3.71-.7,3.87-2.28,4m0-6.64c-.91.06-1.17,1.49-1.17,2.87s.3,2.78,1.21,2.72,1.18-1.48,1.18-2.86-.31-2.8-1.22-2.73" transform="translate(-346.51 -333.61)" style="fill:#fbbb25"/><path d="M379.6,345.39v-3c0-.47,0-1.84,0-1.84s-.41,1.38-.58,1.92l-1,3.11-1-3.11c-.17-.54-.58-1.92-.58-1.92s0,1.37,0,1.84v3l-1,0V338l1.1,0,1,3.09c.14.45.46,1.63.46,1.63s.33-1.22.47-1.66l1-3.05,1.09,0v7.45l-1,0" transform="translate(-346.51 -333.61)" style="fill:#fbbb25"/><path d="M384.11,345.71c-1.59-.11-2.25-1.8-2.25-4s.68-3.83,2.26-3.72,2.27,1.86,2.27,4-.69,3.77-2.28,3.66m0-6.64c-.91-.06-1.17,1.33-1.17,2.71s.3,2.82,1.21,2.89,1.18-1.31,1.18-2.7-.31-2.84-1.22-2.9" transform="translate(-346.51 -333.61)" style="fill:#fbbb25"/><path d="M389.61,346.16l-2-.24v-7.45l1.88.23a2.16,2.16,0,0,1,2.07,2.27c0,.61-.87,1.41-.87,1.41s1,1,1,1.85c0,1.49-.85,2.1-2.09,1.94m-.07-6.45-.87-.11v2l.85.11a.8.8,0,0,0,1-.89,1,1,0,0,0-1-1.12m0,3-.83-.11V345l.94.12c.63.09,1-.2,1-1.09a1.23,1.23,0,0,0-1.14-1.33" transform="translate(-346.51 -333.61)" style="fill:#fbbb25"/><path d="M393,346.68v-7.45l1,.19v7.45l-1-.19" transform="translate(-346.51 -333.61)" style="fill:#fbbb25"/><path d="M395.54,347.17v-7.45l1,.22v6.42c.94.21,1.42.31,2.36.55v1c-1.35-.33-2-.49-3.39-.77" transform="translate(-346.51 -333.61)" style="fill:#fbbb25"/><path d="M395.54,347.17v-7.45l1,.22v6.42c.94.21,1.42.31,2.36.55v1c-1.35-.33-2-.49-3.39-.77" transform="translate(-346.51 -333.61)" style="fill:#fbbb25"/><path d="M395.54,347.17v-7.45l1,.22v6.42c.94.21,1.42.31,2.36.55v1c-1.35-.33-2-.49-3.39-.77" transform="translate(-346.51 -333.61)" style="fill:#fbbb25"/><path d="M400,348.21v-7.45l1,.27v7.45l-1-.27" transform="translate(-346.51 -333.61)" style="fill:#fbbb25"/></svg>